<svg width="57" height="45" viewBox="0 0 57 45" fill="none" xmlns="http://www.w3.org/2000/svg">
<g clip-path="url(#clip0_102_24)">
<path d="M46.0677 33.1082C43.8408 35.3801 40.7258 36.6649 37.3517 36.6694C33.9753 36.6762 30.8581 35.4004 28.6312 33.1352C27.5425 32.0308 26.7446 30.7641 26.2487 29.4095C25.7641 28.0796 25.5793 26.6574 25.7033 25.2487C25.8228 23.8738 26.2285 22.5372 26.8979 21.3291C27.5493 20.148 28.4441 19.0819 29.5485 18.1803C31.7123 16.4155 34.4666 15.462 37.3517 15.4575C40.2367 15.453 42.9888 16.4019 45.1548 18.1578C46.257 19.0571 47.1518 20.1187 47.801 21.2975C48.4704 22.5056 48.8783 23.84 48.9978 25.2149C49.1218 26.6258 48.9347 28.0458 48.4501 29.3779C47.9542 30.7303 47.1541 31.9992 46.0677 33.1082Z" fill="white"/>
<path d="M30.1525 25.3929C30.2539 23.556 31.1555 21.9354 32.5124 20.7881C33.8445 19.6589 35.6386 18.9714 37.5928 18.9714C39.5492 18.9737 41.3411 19.6611 42.6732 20.7881C44.03 21.9376 44.9316 23.556 45.0353 25.3929C45.139 27.2817 44.3794 29.0375 43.0473 30.3381C41.6904 31.6611 39.7565 32.4928 37.5928 32.4928C35.429 32.4928 33.4928 31.6611 32.136 30.3381C30.8061 29.0375 30.0488 27.2817 30.1525 25.3929Z" fill="#005385"/>
<path d="M18.299 29.1119C18.3125 29.8287 18.5424 31.2261 18.885 32.3193C19.6085 34.6296 20.8347 36.7685 22.5432 38.6528C24.2967 40.589 26.4515 42.1442 28.9444 43.2464C31.5657 44.4072 34.4034 45 37.3493 44.9932C40.2952 44.9887 43.1329 44.3869 45.752 43.2171C48.2426 42.1014 50.3974 40.5417 52.1487 38.601C53.855 36.7077 55.0788 34.5664 55.8024 32.2562C56.163 31.1044 56.3951 29.9166 56.4898 28.7152C56.58 27.5432 56.5417 26.3621 56.3771 25.1968C56.0525 22.9113 55.2614 20.7678 54.0443 18.8136C52.9286 17.0195 51.4951 15.4462 49.7888 14.1209L49.7911 14.1187L32.5755 0.901531C32.5619 0.890261 32.5462 0.876737 32.5326 0.865467C31.3989 -4.72289e-05 29.5011 0.00220685 28.2592 0.872229C27.0015 1.75127 26.8595 3.20506 27.9752 4.12242L27.9707 4.12467L35.1517 9.96689L13.2592 9.98943H13.2299C11.4222 9.99169 9.68215 11.1795 9.3373 12.6784C8.98568 14.2066 10.2141 15.4733 12.0961 15.4823L12.0939 15.4891L23.19 15.4665L3.38914 30.6649C3.36435 30.6852 3.3373 30.7032 3.31476 30.7212C1.44849 32.1502 0.844437 34.5304 2.01874 36.036C3.21333 37.5664 5.75127 37.5687 7.64008 36.0428L18.4455 27.2006C18.4455 27.2006 18.2877 28.3951 18.299 29.1119ZM46.0676 33.1081C43.8407 35.3801 40.7257 36.6649 37.3516 36.6694C33.9752 36.6761 30.858 35.4004 28.6311 33.1352C27.5424 32.0308 26.7445 30.764 26.2486 29.4094C25.764 28.0796 25.5792 26.6574 25.7032 25.2486C25.8226 23.8737 26.2284 22.5371 26.8978 21.329C27.5492 20.148 28.444 19.0818 29.5484 18.1803C31.7122 16.4154 34.4665 15.462 37.3516 15.4575C40.2366 15.453 42.9887 16.4019 45.1547 18.1577C46.2569 19.0571 47.1517 20.1187 47.8009 21.2975C48.4703 22.5056 48.8782 23.8399 48.9977 25.2148C49.1217 26.6258 48.9346 28.0458 48.45 29.3779C47.9541 30.7302 47.154 31.9992 46.0676 33.1081Z" fill="#FF7021"/>
</g>
<defs>
<clipPath id="clip0_102_24">
<rect width="56.1938" height="45" fill="white" transform="translate(0.615356)"/>
</clipPath>
</defs>
</svg>
