<svg width="299" height="301" viewBox="0 0 299 301" fill="none" xmlns="http://www.w3.org/2000/svg">
<path d="M39.3718 293.209H45.3516L45.3516 130.111H39.3718L39.3718 293.209Z" fill="#263238"/>
<path d="M285.731 203.26H186.974V191.309H285.731C286.924 191.309 288.069 191.723 288.913 192.459C289.756 193.196 290.231 194.195 290.231 195.236V199.333C290.231 199.849 290.114 200.36 289.888 200.836C289.662 201.313 289.33 201.745 288.913 202.11C288.495 202.475 287.999 202.764 287.453 202.962C286.907 203.159 286.321 203.26 285.731 203.26Z" fill="#407BFF"/>
<path d="M281.934 294.109L274.778 195.395" stroke="#407BFF" stroke-width="3.42714" stroke-linecap="round" stroke-linejoin="round"/>
<path d="M254.534 299L247.378 200.286" stroke="#407BFF" stroke-width="3.42714" stroke-linecap="round" stroke-linejoin="round"/>
<path d="M182.716 294.109L189.872 195.395" stroke="#407BFF" stroke-width="3.42714" stroke-linecap="round" stroke-linejoin="round"/>
<path d="M210.116 299L217.273 200.286" stroke="#407BFF" stroke-width="3.42714" stroke-linecap="round" stroke-linejoin="round"/>
<path d="M294.5 195.395H195.743V183.444H294.5C295.693 183.444 296.838 183.857 297.682 184.594C298.526 185.331 299 186.329 299 187.371V191.468C299 192.509 298.526 193.508 297.682 194.245C296.838 194.981 295.693 195.395 294.5 195.395Z" fill="#407BFF"/>
<path opacity="0.2" d="M294.5 195.395H195.743V183.444H294.5C295.693 183.444 296.838 183.857 297.682 184.594C298.526 185.331 299 186.329 299 187.371V191.468C299 192.509 298.526 193.508 297.682 194.245C296.838 194.981 295.693 195.395 294.5 195.395Z" fill="black"/>
<path d="M195.04 297.105H201.019L201.019 134.007H195.04L195.04 297.105Z" fill="#263238"/>
<path d="M215.417 146.414C215.417 146.414 147.068 148.658 135.715 172.604C135.715 172.604 137.292 243.921 146.437 267.327L166.002 265.39L162.873 196.062L233.574 146.435L215.417 146.414Z" fill="#263238"/>
<path opacity="0.2" d="M215.417 146.414C215.417 146.414 147.068 148.658 135.715 172.604C135.715 172.604 137.292 243.921 146.437 267.327L166.002 265.39L162.873 196.062L233.574 146.435L215.417 146.414Z" fill="black"/>
<path d="M162.763 283.238H150.549L150.379 276.134L150.258 270.566L162.193 271.201L162.424 276.134L162.763 283.238Z" fill="#B55B52"/>
<path opacity="0.2" d="M162.424 276.134H150.379L150.258 270.566L162.193 271.201L162.424 276.134Z" fill="black"/>
<path d="M168.222 272.831L142.071 273.52L137.304 265.051L167.494 264.807L168.222 272.831Z" fill="#407BFF"/>
<path d="M147.42 284.847C147.42 284.847 148.051 278.59 145.552 279.458C143.053 280.326 145.843 283.523 147.42 284.847Z" stroke="#407BFF" stroke-width="1.14238" stroke-miterlimit="10"/>
<path d="M147.42 284.847C147.42 284.847 142.047 281.565 140.676 283.237C139.305 284.91 147.42 284.847 147.42 284.847Z" stroke="#407BFF" stroke-width="1.14238" stroke-miterlimit="10"/>
<path d="M151.677 281.808L161.381 281.893C162.065 281.907 162.72 282.142 163.217 282.553C163.714 282.963 164.02 283.52 164.073 284.116L164.753 291.6C164.785 291.925 164.739 292.252 164.617 292.56C164.495 292.868 164.3 293.149 164.045 293.387C163.79 293.625 163.48 293.813 163.136 293.939C162.792 294.065 162.421 294.127 162.048 294.12C156.796 293.982 145.989 293.739 142.156 293.834C137.025 293.961 129.735 294.035 128.692 292.331C128.395 291.874 128.295 291.339 128.408 290.824C128.521 290.308 128.841 289.844 129.311 289.515C129.311 289.515 143.296 288.382 149.724 282.581C149.974 282.345 150.276 282.155 150.611 282.022C150.947 281.889 151.309 281.817 151.677 281.808Z" fill="#263238"/>
<path d="M276.743 146.414C276.743 146.414 278.041 160.313 277.555 171.058C276.997 183.444 246.444 194.347 201.965 187.996C201.965 187.996 198.496 208.924 186.197 228.222C173.898 247.521 154.661 276.134 154.661 276.134L135.739 265.39C135.739 265.39 160.653 205.05 165.395 188.303C170.138 171.556 172.018 163.521 185.579 158.291C199.139 153.062 228.795 146.414 228.795 146.414H276.743Z" fill="#263238"/>
<path d="M147.42 272.98L145.176 275.986L140.239 282.624L130.766 277.807L135.727 271.074L137.656 268.47L147.42 272.98Z" fill="#B55B52"/>
<path opacity="0.2" d="M147.42 272.98L145.176 275.986L135.727 271.074L137.656 268.47L147.42 272.98Z" fill="black"/>
<path d="M159.586 270.566L134.781 257.609L130.766 266.258L154.309 278.124L159.586 270.566Z" fill="#407BFF"/>
<path d="M124.277 278.125C124.277 278.125 126.084 272.705 124.059 272.599C122.033 272.493 124.277 278.125 124.277 278.125Z" stroke="#407BFF" stroke-width="1.14238" stroke-miterlimit="10"/>
<path d="M123.804 277.923C123.804 277.923 121.002 272.038 118.746 273.35C116.49 274.663 123.804 277.923 123.804 277.923Z" stroke="#407BFF" stroke-width="1.14238" stroke-miterlimit="10"/>
<path d="M131.991 277.214L140.264 281.448C140.845 281.746 141.275 282.226 141.467 282.79C141.658 283.354 141.596 283.961 141.295 284.487L137.547 291.124C137.381 291.414 137.148 291.671 136.862 291.878C136.577 292.086 136.245 292.239 135.888 292.329C135.531 292.418 135.157 292.442 134.789 292.399C134.421 292.355 134.067 292.246 133.75 292.077C129.299 289.684 120.117 284.783 116.769 283.206C112.257 281.089 105.938 277.997 106.022 276.103C106.04 275.583 106.267 275.085 106.664 274.697C107.062 274.31 107.604 274.058 108.194 273.985C108.194 273.985 120.905 279.088 129.82 276.971C130.182 276.883 130.561 276.86 130.934 276.901C131.307 276.943 131.666 277.05 131.991 277.214Z" fill="#263238"/>
<path d="M199.964 85.6717C199.964 85.6717 197.417 109.956 198.436 116.202C198.436 116.202 171.848 119.6 158.409 117.991L149.409 116.022L138.153 118.425L141.222 126.205H150.222C150.222 126.205 156.771 127.814 159.634 126.205C159.634 126.205 182.134 130.133 195.428 128.884C208.721 127.634 212.845 123.22 213.44 114.423C213.998 105.954 220.39 87.0902 215.283 82.8029L199.964 85.6717Z" fill="#B55B52"/>
<path d="M291.274 88.4028C291.274 88.4028 281.073 65.7912 271.151 60.6887C261.229 55.5863 215.283 65.3466 215.283 65.3466C215.283 65.3466 195.573 70.883 194.445 97.7608L212.554 104.462L215.417 146.414H276.743L276.415 92.0761L291.274 88.4028Z" fill="#407BFF"/>
<path d="M216.12 21.0337C216.12 21.0337 210.056 20.3668 208.406 16.397C206.756 12.4273 213.088 14.428 212.554 7.25075C212.021 0.0734664 221.469 -1.64146 228.322 1.51316C235.175 4.66778 246.055 1.22734 250.155 5.53583C254.255 9.84432 252.46 13.8564 252.46 13.8564C252.46 13.8564 264.249 25.501 249.306 33.451C234.363 41.4011 216.12 21.0337 216.12 21.0337Z" fill="#263238"/>
<path d="M251.78 59.7254C245.231 68.4377 239.336 69.3375 231.44 69.3269C222.573 69.3269 225.545 63.8327 225.545 63.8327C229.256 62.2131 231.961 60.477 232.386 56.4861C232.472 55.7122 232.492 54.9337 232.446 54.1572C232.36 52.3603 232.005 50.581 231.391 48.8642C218.837 49.8593 214.41 44.5134 212.845 34.4249C211.972 28.2197 213.266 21.9289 216.557 16.3759C223.835 23.8495 237.529 17.9955 237.529 17.9955C233.684 27.7028 243.096 31.1856 243.096 31.1856C246.735 29.1955 249.646 30.9316 249.367 34.7954C249.313 35.8733 248.89 36.9123 248.152 37.7784C247.415 38.6445 246.397 39.2979 245.231 39.6544C244.515 56.8566 251.78 59.7254 251.78 59.7254Z" fill="#B55B52"/>
<path d="M220.014 38.3947C219.915 38.3948 219.82 38.3621 219.748 38.303C219.675 38.244 219.632 38.1632 219.626 38.0771C219.622 38.0326 219.629 37.9879 219.646 37.9457C219.662 37.9035 219.688 37.8646 219.722 37.8312C219.756 37.7977 219.797 37.7705 219.843 37.7509C219.889 37.7313 219.939 37.7199 219.99 37.7172C224.38 37.516 226.054 35.6741 226.115 35.6529C226.146 35.6185 226.184 35.5897 226.228 35.5684C226.271 35.547 226.319 35.5335 226.369 35.5286C226.419 35.5237 226.469 35.5274 226.517 35.5397C226.565 35.5519 226.61 35.5724 226.649 35.6C226.689 35.627 226.724 35.6608 226.749 35.6994C226.775 35.738 226.792 35.7807 226.799 35.8249C226.805 35.8692 226.802 35.9142 226.789 35.9574C226.775 36.0005 226.753 36.0409 226.721 36.0763C226.649 36.161 224.805 38.1935 220.038 38.3947H220.014Z" fill="#263238"/>
<path d="M220.014 34.2238L219.298 27.7981L216.12 33.6416C216.655 34.0261 217.296 34.2821 217.978 34.3842C218.661 34.4863 219.363 34.431 220.014 34.2238Z" fill="#A02724"/>
<path d="M224.914 27.7981C224.914 28.6027 225.339 29.259 225.872 29.259C226.406 29.259 226.83 28.6027 226.83 27.7981C226.83 26.9936 226.406 26.3373 225.872 26.3373C225.339 26.3373 224.914 26.9936 224.914 27.7981Z" fill="#263238"/>
<path d="M215.162 29.259C215.691 29.259 216.12 28.605 216.12 27.7981C216.12 26.9913 215.691 26.3373 215.162 26.3373C214.633 26.3373 214.204 26.9913 214.204 27.7981C214.204 28.605 214.633 29.259 215.162 29.259Z" fill="#263238"/>
<path d="M231.306 24.5693C231.223 24.5712 231.14 24.5547 231.066 24.5214C230.992 24.4881 230.928 24.4391 230.882 24.3788C230.821 24.2941 229.232 22.431 225.545 23.0238C225.478 23.036 225.409 23.0364 225.342 23.0248C225.274 23.0132 225.211 22.9899 225.154 22.9563C225.097 22.9227 225.049 22.8795 225.012 22.8292C224.975 22.779 224.95 22.7227 224.938 22.6639C224.917 22.5463 224.947 22.426 225.024 22.3276C225.101 22.2291 225.218 22.1601 225.351 22.1346C229.717 21.4359 231.646 23.7542 231.731 23.8601C231.783 23.9281 231.814 24.0071 231.819 24.089C231.824 24.1708 231.804 24.2523 231.76 24.325C231.717 24.3976 231.652 24.4586 231.572 24.5016C231.492 24.5447 231.4 24.568 231.306 24.5693Z" fill="#263238"/>
<path d="M213.537 23.9765C213.452 23.9751 213.369 23.957 213.294 23.9236C213.234 23.8967 213.181 23.8598 213.137 23.8148C213.094 23.7699 213.061 23.7178 213.04 23.6617C213.02 23.6055 213.013 23.5465 213.019 23.4878C213.025 23.4292 213.044 23.3722 213.076 23.3202C213.485 22.7253 214.087 22.2497 214.806 21.9539C215.525 21.658 216.329 21.5551 217.115 21.6582C217.182 21.6659 217.247 21.6853 217.305 21.7152C217.364 21.7451 217.415 21.7848 217.456 21.8322C217.496 21.8795 217.526 21.9334 217.542 21.9908C217.559 22.0482 217.562 22.1078 217.552 22.1663C217.544 22.2245 217.523 22.2808 217.49 22.3318C217.457 22.3827 217.413 22.4274 217.36 22.463C217.306 22.4986 217.245 22.5244 217.18 22.5389C217.115 22.5534 217.048 22.5563 216.981 22.5474C216.406 22.4719 215.818 22.5438 215.288 22.7542C214.759 22.9647 214.31 23.3047 213.998 23.733C213.952 23.8049 213.885 23.8652 213.804 23.9078C213.723 23.9505 213.631 23.9742 213.537 23.9765Z" fill="#263238"/>
<path d="M212.712 32.8053C211.578 32.8032 210.47 32.5078 209.528 31.9563C208.586 31.4049 207.853 30.6221 207.42 29.707C206.988 28.7919 206.876 27.7854 207.099 26.8148C207.321 25.8442 207.869 24.953 208.672 24.2538C209.474 23.5546 210.497 23.0788 211.609 22.8865C212.722 22.6941 213.875 22.7939 214.922 23.1732C215.97 23.5525 216.865 24.1943 217.495 25.0174C218.125 25.8406 218.461 26.8083 218.461 27.7982C218.461 28.4566 218.312 29.1086 218.023 29.7168C217.734 30.325 217.311 30.8774 216.777 31.3425C216.243 31.8076 215.609 32.1762 214.911 32.4272C214.214 32.6782 213.466 32.8067 212.712 32.8053ZM212.712 23.4579C211.728 23.4579 210.767 23.7125 209.949 24.1894C209.131 24.6663 208.494 25.3442 208.117 26.1372C207.741 26.9303 207.643 27.803 207.834 28.6449C208.026 29.4868 208.5 30.2602 209.196 30.8672C209.891 31.4742 210.777 31.8875 211.742 32.055C212.706 32.2225 213.706 32.1365 214.615 31.808C215.524 31.4795 216.3 30.9232 216.847 30.2095C217.393 29.4957 217.685 28.6566 217.685 27.7982C217.669 26.6563 217.138 25.5659 216.207 24.7633C215.276 23.9608 214.02 23.5108 212.712 23.5108V23.4579Z" fill="white"/>
<path d="M226.455 32.8053C225.32 32.8053 224.211 32.5117 223.267 31.9615C222.324 31.4113 221.588 30.6293 221.154 29.7143C220.72 28.7994 220.606 27.7926 220.828 26.8213C221.049 25.85 221.595 24.9578 222.398 24.2576C223.2 23.5573 224.222 23.0804 225.335 22.8872C226.448 22.694 227.602 22.7932 228.65 23.1722C229.698 23.5511 230.594 24.1929 231.225 25.0163C231.855 25.8398 232.192 26.8079 232.192 27.7982C232.189 29.1253 231.583 30.3973 230.508 31.3357C229.433 32.2741 227.975 32.8025 226.455 32.8053ZM226.455 23.4579C225.47 23.4558 224.508 23.7086 223.688 24.1842C222.869 24.6599 222.23 25.337 221.851 26.1299C221.473 26.9228 221.373 27.7958 221.563 28.6384C221.754 29.481 222.227 30.2554 222.922 30.8634C223.617 31.4715 224.503 31.8859 225.468 32.0542C226.433 32.2226 227.433 32.1372 228.343 31.809C229.252 31.4809 230.03 30.9246 230.576 30.2106C231.123 29.4966 231.415 28.657 231.415 27.7982C231.396 26.659 230.866 25.5717 229.939 24.7701C229.011 23.9684 227.76 23.5163 226.455 23.5109V23.4579Z" fill="white"/>
<path d="M218.461 27.7981H220.669" stroke="white" stroke-width="1.14238" stroke-miterlimit="10"/>
<path d="M231.779 28.7191L242.538 30.9739" stroke="white" stroke-width="1.14238" stroke-linecap="round" stroke-linejoin="round"/>
<path opacity="0.2" d="M235.551 47.8585C234.864 50.0626 233.818 52.1695 232.446 54.1148C232.36 52.318 232.005 50.5386 231.391 48.8218L235.551 47.8585Z" fill="black"/>
<path opacity="0.2" d="M212.554 104.462V97.7607L209.449 103.318L212.554 104.462Z" fill="black"/>
<path opacity="0.2" d="M263.17 95.5165L260.805 83.4591L260.138 96.5857L263.17 95.5165Z" fill="black"/>
<path d="M280.09 120.817C279.945 129.635 275.396 134.028 262.091 135.277C248.785 136.527 226.297 132.599 226.297 132.599C223.434 134.208 216.885 132.599 216.885 132.599H207.885L204.828 124.819L216.072 122.426L225.072 124.385C238.572 125.994 265.159 122.606 265.159 122.606C264.395 117.927 263.534 102.652 263.17 95.5166L279.035 91.4198C280.6 100.788 280.224 113.216 280.09 120.817Z" fill="#B55B52"/>
<path d="M45.0457 74.7113L55.7801 122.465C56.0181 123.5 56.6591 124.431 57.5943 125.101C58.5295 125.77 59.7013 126.137 60.9108 126.138H151.796C152.559 126.138 153.312 125.991 154.003 125.709C154.694 125.427 155.305 125.016 155.795 124.505C156.284 123.995 156.639 123.397 156.834 122.753C157.03 122.11 157.061 121.437 156.927 120.781L147.223 73.0281C147.009 71.9767 146.378 71.0247 145.439 70.3394C144.501 69.654 143.316 69.2792 142.092 69.2807H50.1764C49.4043 69.2771 48.641 69.4235 47.9417 69.7092C47.2425 69.995 46.6249 70.413 46.1337 70.9329C45.6425 71.4528 45.2901 72.0616 45.1019 72.7151C44.9137 73.3686 44.8945 74.0505 45.0457 74.7113Z" fill="#407BFF"/>
<path d="M67.647 105.095L67.2138 94.7024L68.2349 94.6598C68.7105 94.64 69.1853 94.6016 69.6594 94.5444C70.1381 94.4871 70.6362 94.4477 71.1537 94.4261C71.9883 94.3913 72.709 94.4804 73.3157 94.6933C73.9223 94.9015 74.3952 95.2672 74.7346 95.7901C75.0787 96.3129 75.2695 97.0243 75.307 97.9242C75.3583 99.1551 75.0318 100.119 74.3276 100.816C73.628 101.514 72.5858 101.891 71.201 101.949C70.9306 101.96 70.7137 101.967 70.5503 101.969C70.3869 101.971 70.2493 101.974 70.1374 101.979L70.2627 104.986L67.647 105.095ZM70.0575 100.063C70.2073 100.07 70.3687 100.078 70.5418 100.084C70.7147 100.087 70.9084 100.083 71.1229 100.074C71.4493 100.061 71.7381 99.9856 71.9893 99.849C72.245 99.7076 72.4414 99.4892 72.5785 99.1939C72.7201 98.8937 72.7808 98.5012 72.7606 98.0163C72.7373 97.4568 72.574 97.0129 72.2707 96.6845C71.9719 96.3514 71.5176 96.2091 70.9078 96.2579C70.7493 96.2645 70.5794 96.2786 70.3981 96.3002C70.2167 96.3171 70.0518 96.3403 69.9036 96.3698L70.0575 100.063ZM78.8315 104.741C78.3186 104.763 77.8666 104.676 77.4755 104.483C77.0889 104.284 76.7829 104.002 76.5576 103.638C76.3367 103.269 76.2161 102.842 76.1959 102.357C76.1768 101.9 76.2839 101.499 76.517 101.153C76.7546 100.802 77.0864 100.526 77.5125 100.326C77.8192 100.178 78.1554 100.064 78.521 99.9831C78.8865 99.8978 79.2529 99.8358 79.6203 99.7972C79.9923 99.7583 80.3415 99.7321 80.6679 99.7185L81.0502 100.151L80.7186 100.935C80.5556 100.947 80.386 100.968 80.2098 100.999C80.0381 101.024 79.876 101.059 79.7237 101.103C79.5712 101.142 79.4492 101.184 79.3577 101.23C79.2157 101.297 79.0819 101.394 78.9564 101.52C78.8354 101.642 78.7807 101.843 78.7924 102.123C78.8077 102.491 78.9192 102.755 79.1266 102.914C79.3386 103.069 79.5728 103.141 79.8292 103.13C79.9645 103.125 80.0967 103.103 80.2259 103.065C80.3597 103.026 80.477 102.982 80.5776 102.931C80.678 102.875 80.7505 102.821 80.795 102.768L81.2222 103.268L80.9675 103.882C80.7608 104.077 80.4837 104.264 80.1361 104.442C79.7932 104.619 79.3583 104.719 78.8315 104.741ZM83.3868 104.439L80.9949 104.539L80.9465 103.378L80.8206 103.383L80.6486 99.2569C80.6343 98.9118 80.5293 98.6897 80.3336 98.5904C80.1426 98.4909 79.8723 98.4485 79.5226 98.4631C79.2242 98.4755 78.9128 98.5118 78.5883 98.5721C78.2686 98.6321 77.9589 98.7104 77.6593 98.807C77.3595 98.8989 77.0977 99.0032 76.8737 99.12L76.2943 97.6588C76.4806 97.5343 76.7506 97.3993 77.1041 97.2537C77.4622 97.1034 77.8654 96.9721 78.3138 96.86C78.7622 96.7479 79.2195 96.6821 79.6858 96.6627C80.5017 96.6287 81.1608 96.697 81.663 96.8675C82.1652 97.0381 82.5348 97.3333 82.7719 97.7531C83.0135 98.1728 83.1494 98.7416 83.1793 99.4596L83.3868 104.439ZM85.2778 104.361L84.8044 93.0024L87.3362 92.8968L87.8096 104.255L85.2778 104.361ZM93.2196 104.142C91.9607 104.194 90.9853 103.877 90.2935 103.192C89.6015 102.501 89.2292 101.524 89.1765 100.261C89.145 99.5052 89.2707 98.8227 89.5535 98.2131C89.8364 97.6035 90.2597 97.1141 90.8235 96.7449C91.3919 96.3756 92.0888 96.1738 92.9141 96.1394C93.3291 96.1221 93.7321 96.1543 94.1232 96.2361C94.5141 96.3132 94.8683 96.4643 95.186 96.6892C95.5034 96.9095 95.7639 97.2209 95.9676 97.6235C96.1712 98.026 96.2883 98.5396 96.319 99.1642C96.3307 99.4439 96.3324 99.7101 96.3243 99.9627C96.3208 100.215 96.3109 100.426 96.2946 100.594L90.5036 100.836L90.591 99.5711L93.9761 99.43C93.9836 99.0513 93.9519 98.7374 93.8808 98.4881C93.8141 98.234 93.7012 98.0472 93.5421 97.9278C93.3877 97.8081 93.1822 97.7536 92.9258 97.7643C92.632 97.7765 92.386 97.8685 92.1876 98.0403C91.9937 98.2071 91.8537 98.4886 91.7674 98.8845C91.6812 99.2804 91.6572 99.8256 91.6955 100.52C91.7236 100.972 91.8205 101.334 91.986 101.608C92.156 101.876 92.3882 102.067 92.6825 102.181C92.9768 102.295 93.3268 102.344 93.7325 102.327C93.9843 102.316 94.2469 102.287 94.5205 102.238C94.794 102.189 95.0461 102.129 95.2767 102.059C95.5119 101.989 95.6912 101.918 95.8143 101.848L96.262 103.174C96.0953 103.321 95.8608 103.466 95.5585 103.61C95.2607 103.748 94.9107 103.868 94.5085 103.969C94.1109 104.065 93.6812 104.122 93.2196 104.142ZM98.0926 103.826L97.7678 96.0351L100.076 95.9389L100.167 96.7759C100.338 96.6239 100.553 96.4702 100.813 96.3145C101.077 96.1587 101.369 96.0252 101.686 95.9138C102.004 95.8025 102.333 95.7374 102.673 95.7186C103.19 95.683 103.627 95.7512 103.985 95.9231C104.342 96.0951 104.616 96.3989 104.807 96.8347C105.003 97.2656 105.116 97.854 105.147 98.6L105.352 103.524L102.834 103.629L102.649 99.1806C102.633 98.8029 102.591 98.5081 102.521 98.2961C102.452 98.0842 102.345 97.9368 102.201 97.8541C102.058 97.7713 101.865 97.7373 101.623 97.7521C101.441 97.7597 101.23 97.8105 100.991 97.9045C100.757 97.9983 100.555 98.1329 100.385 98.3081L100.61 103.721L98.0926 103.826ZM105.031 98.1705L104.547 96.6353C104.663 96.5184 104.849 96.3752 105.103 96.2058C105.358 96.0364 105.664 95.8858 106.023 95.7541C106.387 95.6175 106.785 95.5425 107.219 95.5291C107.741 95.5027 108.192 95.5726 108.573 95.7389C108.953 95.9052 109.253 96.2033 109.472 96.6332C109.691 97.0632 109.816 97.6581 109.848 98.4181L110.052 103.328L107.52 103.433L107.334 98.9713C107.319 98.5936 107.276 98.3011 107.207 98.0938C107.137 97.8819 107.028 97.7369 106.88 97.659C106.737 97.5763 106.542 97.5424 106.295 97.5573C106.029 97.5684 105.782 97.6418 105.554 97.7774C105.326 97.913 105.152 98.044 105.031 98.1705ZM113.801 103.284C113.288 103.305 112.836 103.219 112.445 103.025C112.059 102.826 111.753 102.545 111.527 102.18C111.306 101.811 111.186 101.384 111.166 100.899C111.146 100.442 111.254 100.041 111.487 99.695C111.724 99.3441 112.056 99.0687 112.482 98.8688C112.789 98.7206 113.125 98.6061 113.491 98.5255C113.856 98.4402 114.223 98.3782 114.59 98.3396C114.962 98.3007 115.311 98.2745 115.638 98.2609L116.02 98.6933L115.688 99.4778C115.525 99.4893 115.356 99.5104 115.179 99.5411C115.008 99.5669 114.846 99.6017 114.693 99.6454C114.541 99.6844 114.419 99.7269 114.327 99.7727C114.185 99.8394 114.052 99.936 113.926 100.063C113.805 100.185 113.75 100.385 113.762 100.665C113.777 101.033 113.889 101.297 114.096 101.457C114.308 101.611 114.542 101.683 114.799 101.673C114.934 101.667 115.066 101.645 115.195 101.607C115.329 101.569 115.447 101.524 115.547 101.473C115.648 101.418 115.72 101.363 115.765 101.31L116.192 101.811L115.937 102.424C115.73 102.619 115.453 102.806 115.106 102.984C114.763 103.162 114.328 103.262 113.801 103.284ZM118.356 102.982L115.965 103.081L115.916 101.92L115.79 101.926L115.618 97.7993C115.604 97.4542 115.499 97.2321 115.303 97.1328C115.112 97.0333 114.842 96.9909 114.492 97.0055C114.194 97.0179 113.882 97.0542 113.558 97.1145C113.238 97.1745 112.929 97.2528 112.629 97.3494C112.329 97.4413 112.067 97.5456 111.843 97.6624L111.264 96.2012C111.45 96.0767 111.72 95.9417 112.074 95.7961C112.432 95.6458 112.835 95.5145 113.283 95.4024C113.732 95.2903 114.189 95.2245 114.655 95.2051C115.471 95.1711 116.13 95.2394 116.633 95.4099C117.135 95.5805 117.504 95.8757 117.741 96.2955C117.983 96.7152 118.119 97.284 118.149 98.002L118.356 102.982ZM122.826 102.908C122.266 102.931 121.815 102.856 121.471 102.684C121.133 102.511 120.881 102.241 120.716 101.875C120.556 101.503 120.464 101.035 120.44 100.471L120.286 96.764L119.391 96.8013L119.335 95.4585C119.676 95.3462 119.956 95.2341 120.175 95.1222C120.395 95.0056 120.551 94.8379 120.645 94.6192C120.692 94.5098 120.742 94.3792 120.797 94.2275C120.851 94.0758 120.907 93.917 120.966 93.751C121.024 93.5851 121.081 93.4286 121.136 93.2816L122.674 93.2174L122.748 94.9939L124.763 94.9099L124.832 96.5745L122.818 96.6585L122.933 99.428C122.953 99.913 122.994 100.266 123.054 100.488C123.12 100.709 123.219 100.848 123.352 100.903C123.485 100.958 123.666 100.981 123.894 100.971C124.011 100.967 124.143 100.947 124.291 100.913C124.439 100.874 124.579 100.828 124.713 100.776C124.846 100.724 124.951 100.67 125.028 100.616L125.38 102.002C125.264 102.129 125.076 102.26 124.815 102.397C124.559 102.529 124.258 102.645 123.912 102.743C123.566 102.837 123.204 102.892 122.826 102.908ZM126.723 102.633L126.25 91.2748L128.782 91.1693L128.904 94.0928L128.837 95.8471L128.758 95.6402C128.915 95.4842 129.121 95.3238 129.375 95.1591C129.63 94.9943 129.916 94.8539 130.234 94.7379C130.551 94.6173 130.884 94.5474 131.234 94.5281C132.081 94.4694 132.716 94.6812 133.138 95.1634C133.559 95.6409 133.792 96.4019 133.835 97.4463L134.039 102.328L131.493 102.434L131.308 97.986C131.283 97.3892 131.185 96.9963 131.013 96.8073C130.842 96.6182 130.589 96.5354 130.253 96.5587C130.095 96.5653 129.896 96.611 129.657 96.6957C129.422 96.7755 129.213 96.915 129.029 97.1142L129.255 102.527L126.723 102.633Z" fill="white" fill-opacity="0.6"/>
<path opacity="0.2" d="M143.817 69.3375L155.17 126.195C155.569 126.196 155.963 126.12 156.324 125.973C156.685 125.827 157.005 125.612 157.261 125.346C157.517 125.079 157.702 124.766 157.804 124.43C157.906 124.094 157.922 123.742 157.851 123.4L147.214 71.2853C147.102 70.7368 146.772 70.2404 146.281 69.8839C145.791 69.5274 145.171 69.3339 144.533 69.3375H143.817Z" fill="black"/>
<path d="M57.2504 130.757H197.029C197.03 130.158 196.896 129.564 196.634 129.009C196.372 128.455 195.987 127.952 195.501 127.528C195.015 127.104 194.438 126.768 193.803 126.539C193.168 126.31 192.488 126.193 191.801 126.195H62.5024C61.8143 126.193 61.1326 126.31 60.4962 126.539C59.8599 126.767 59.2814 127.103 58.7937 127.527C58.306 127.95 57.9187 128.454 57.6539 129.008C57.3891 129.562 57.252 130.157 57.2504 130.757Z" fill="#407BFF"/>
<path opacity="0.2" d="M150.852 130.757H197.029C197.03 130.158 196.896 129.564 196.634 129.009C196.372 128.455 195.987 127.952 195.501 127.528C195.015 127.104 194.438 126.768 193.803 126.539C193.169 126.31 192.488 126.193 191.801 126.195H156.104C155.416 126.193 154.735 126.31 154.098 126.539C153.462 126.767 152.883 127.103 152.396 127.527C151.908 127.95 151.521 128.454 151.256 129.008C150.991 129.562 150.854 130.157 150.852 130.757Z" fill="black"/>
<path opacity="0.2" d="M57.2504 130.757H197.029C197.03 130.158 196.896 129.564 196.634 129.009C196.372 128.455 195.987 127.952 195.501 127.528C195.015 127.104 194.438 126.768 193.803 126.539C193.168 126.31 192.488 126.193 191.801 126.195H62.5024C61.8143 126.193 61.1326 126.31 60.4962 126.539C59.8599 126.767 59.2814 127.103 58.7937 127.527C58.306 127.95 57.9187 128.454 57.6539 129.008C57.3891 129.562 57.252 130.157 57.2504 130.757Z" fill="black"/>
<path d="M0 136.664H241.374C241.374 134.665 240.464 132.748 238.844 131.335C237.225 129.921 235.028 129.127 232.737 129.127H8.6482C6.35665 129.127 4.15879 129.921 2.53728 131.334C0.915777 132.747 0.00321395 134.664 0 136.664Z" fill="#263238"/>
</svg>
