<svg width="17" height="17" viewBox="0 0 17 17" fill="none" xmlns="http://www.w3.org/2000/svg">
<path d="M0.599976 16.4809V0.618996H5.52084V1.96055L5.80861 2.1973V10.1874L5.75105 11.1936L5.80861 12.9495V16.4809H0.599976ZM8.39854 11.7657C7.4489 11.7657 6.67192 11.6967 6.0676 11.5586C5.47288 11.4139 5.08918 11.2988 4.91652 11.2133L5.80861 8.96425C6.01005 9.10235 6.30741 9.20428 6.70069 9.27004C7.09398 9.32923 7.52564 9.35882 7.99566 9.35882C8.60957 9.35882 9.14674 9.2273 9.60717 8.96425C10.0772 8.7012 10.4465 8.31649 10.7151 7.81012C10.9837 7.29717 11.1228 6.66914 11.1324 5.92602C11.1324 4.86725 10.8925 4.13729 10.4129 3.73614C9.93331 3.32841 9.28103 3.12455 8.45609 3.12455C7.93811 3.12455 7.43451 3.18373 6.9453 3.3021C6.46568 3.4139 6.08679 3.54543 5.80861 3.69668L5.26185 1.86191C5.48247 1.6975 5.79902 1.50679 6.21149 1.28977C6.62396 1.07276 7.15633 0.885335 7.80861 0.727505C8.46089 0.563099 9.26185 0.480896 10.2115 0.480896C11.353 0.480896 12.4081 0.671607 13.377 1.05303C14.3458 1.42788 15.1228 2.0033 15.7079 2.77929C16.3026 3.54871 16.6 4.52529 16.6 5.70901C16.6 6.95192 16.2594 8.02713 15.5784 8.93466C14.8973 9.8356 13.9381 10.5327 12.7007 11.0259C11.4729 11.5191 10.0388 11.7657 8.39854 11.7657Z" fill="#0074FF"/>
</svg>
