<svg width="166" height="30" viewBox="0 0 166 30" fill="none" xmlns="http://www.w3.org/2000/svg">
<path d="M6.61977 29.8789V5.87891H11.3025V8.81073H11.5143C11.7225 8.34103 12.0235 7.86376 12.4174 7.37891C12.8188 6.88649 13.3391 6.47739 13.9783 6.15164C14.625 5.8183 15.4278 5.65164 16.3866 5.65164C17.6353 5.65164 18.7874 5.98497 19.8429 6.65164C20.8984 7.31073 21.742 8.30694 22.3738 9.64027C23.0056 10.966 23.3215 12.6289 23.3215 14.6289C23.3215 16.5759 23.013 18.2198 22.3961 19.5607C21.7866 20.8941 20.9541 21.9054 19.8986 22.5948C18.8506 23.2766 17.6762 23.6175 16.3755 23.6175C15.4538 23.6175 14.6696 23.4622 14.0229 23.1516C13.3837 22.841 12.8597 22.4509 12.4509 21.9812C12.0421 21.5039 11.7299 21.0228 11.5143 20.538H11.3694V29.8789H6.61977ZM11.269 14.6062C11.269 15.6441 11.4103 16.5494 11.6927 17.3221C11.9752 18.0948 12.384 18.6971 12.9192 19.1289C13.4543 19.5532 14.1047 19.7653 14.8703 19.7653C15.6433 19.7653 16.2974 19.5494 16.8326 19.1175C17.3677 18.6782 17.7728 18.0721 18.0479 17.2994C18.3303 16.5191 18.4715 15.6213 18.4715 14.6062C18.4715 13.5986 18.334 12.7122 18.059 11.9471C17.784 11.1819 17.3789 10.5835 16.8437 10.1516C16.3086 9.71982 15.6507 9.50391 14.8703 9.50391C14.0973 9.50391 13.4432 9.71224 12.908 10.1289C12.3803 10.5456 11.9752 11.1365 11.6927 11.9016C11.4103 12.6668 11.269 13.5683 11.269 14.6062Z" fill="#0074FF"/>
<path d="M31.3713 23.663C30.2787 23.663 29.305 23.4698 28.4502 23.0835C27.5954 22.6895 26.919 22.11 26.421 21.3448C25.9304 20.5721 25.6852 19.61 25.6852 18.4585C25.6852 17.4888 25.8598 16.6744 26.2092 16.0153C26.5585 15.3562 27.0342 14.8259 27.6363 14.4244C28.2384 14.0228 28.9222 13.7198 29.6878 13.5153C30.4608 13.3107 31.271 13.1668 32.1183 13.0835C33.1143 12.9774 33.9171 12.8789 34.5266 12.788C35.1361 12.6895 35.5784 12.5456 35.8534 12.3562C36.1284 12.1668 36.2659 11.8865 36.2659 11.5153V11.4471C36.2659 10.7274 36.0429 10.1706 35.5969 9.77664C35.1584 9.3827 34.534 9.18573 33.7238 9.18573C32.8691 9.18573 32.189 9.37891 31.6835 9.76527C31.1781 10.1441 30.8436 10.6213 30.6801 11.1971L26.2872 10.8335C26.5102 9.77285 26.9488 8.85618 27.6029 8.08346C28.2569 7.30315 29.1006 6.70467 30.1338 6.288C31.1744 5.86376 32.3785 5.65164 33.7461 5.65164C34.6976 5.65164 35.6081 5.76527 36.4777 5.99255C37.3548 6.21982 38.1316 6.57209 38.808 7.04936C39.4918 7.52664 40.0307 8.14027 40.4246 8.89027C40.8185 9.6327 41.0155 10.5228 41.0155 11.5607V23.3335H36.5112V20.913H36.3774C36.1024 21.4585 35.7344 21.9395 35.2736 22.3562C34.8128 22.7653 34.259 23.0872 33.6124 23.3221C32.9657 23.5494 32.2187 23.663 31.3713 23.663ZM32.7316 20.3221C33.4302 20.3221 34.0472 20.1819 34.5823 19.9016C35.1175 19.6138 35.5375 19.2274 35.8422 18.7425C36.147 18.2577 36.2993 17.7085 36.2993 17.0948V15.2425C36.1507 15.341 35.9463 15.4319 35.6861 15.5153C35.4334 15.591 35.1472 15.663 34.8276 15.7312C34.508 15.7918 34.1884 15.8486 33.8688 15.9016C33.5492 15.9471 33.2593 15.9888 32.9991 16.0266C32.4417 16.11 31.9548 16.2425 31.5386 16.4244C31.1223 16.6062 30.799 16.8524 30.5686 17.163C30.3382 17.466 30.2229 17.8448 30.2229 18.2994C30.2229 18.9585 30.4571 19.4622 30.9254 19.8107C31.4011 20.1516 32.0031 20.3221 32.7316 20.3221Z" fill="#0074FF"/>
<path d="M49.45 0.0607275V23.3335H44.7004V0.0607275H49.45Z" fill="#0074FF"/>
<path d="M61.0593 23.6744C59.2977 23.6744 57.7814 23.3107 56.5103 22.5835C55.2467 21.8486 54.273 20.8107 53.5892 19.4698C52.9054 18.1213 52.5635 16.5266 52.5635 14.6857C52.5635 12.8903 52.9054 11.3145 53.5892 9.95846C54.273 8.60239 55.2356 7.54558 56.4769 6.788C57.7256 6.03042 59.1899 5.65164 60.8697 5.65164C61.9995 5.65164 63.0513 5.83724 64.025 6.20846C65.0061 6.57209 65.8609 7.12133 66.5894 7.85618C67.3252 8.59103 67.8975 9.51527 68.3064 10.6289C68.7152 11.735 68.9196 13.0304 68.9196 14.5153V15.8448H54.4589V12.8448H64.4487C64.4487 12.1478 64.3 11.5304 64.0027 10.9925C63.7054 10.4547 63.2929 10.0342 62.7651 9.73118C62.2448 9.42058 61.639 9.26527 60.9478 9.26527C60.2268 9.26527 59.5876 9.43573 59.0301 9.77664C58.4801 10.11 58.0489 10.5607 57.7368 11.1289C57.4246 11.6895 57.2648 12.3145 57.2573 13.0039V15.8562C57.2573 16.7198 57.4134 17.466 57.7256 18.0948C58.0452 18.7236 58.4949 19.2085 59.0747 19.5494C59.6545 19.8903 60.342 20.0607 61.1373 20.0607C61.6651 20.0607 62.1482 19.985 62.5867 19.8335C63.0253 19.6819 63.4006 19.4547 63.7128 19.1516C64.025 18.8486 64.2629 18.4774 64.4264 18.038L68.8192 18.3335C68.5962 19.4092 68.1391 20.3486 67.4479 21.1516C66.764 21.9471 65.8795 22.5683 64.7943 23.0153C63.7165 23.4547 62.4715 23.6744 61.0593 23.6744Z" fill="#0074FF"/>
<path d="M79.2857 23.3335V5.87891H83.8123V8.95846H84.013C84.3698 7.93573 84.9644 7.12891 85.7969 6.538C86.6294 5.94709 87.6254 5.65164 88.7849 5.65164C89.9593 5.65164 90.959 5.95088 91.7841 6.54936C92.6092 7.14027 93.1592 7.9433 93.4342 8.95846H93.6126C93.9619 7.95846 94.5937 7.15921 95.508 6.56073C96.4297 5.95467 97.5186 5.65164 98.7747 5.65164C100.373 5.65164 101.67 6.17058 102.666 7.20846C103.669 8.23876 104.171 9.70088 104.171 11.5948V23.3335H99.4326V12.5494C99.4326 11.5797 99.1798 10.8524 98.6744 10.3675C98.169 9.8827 97.5372 9.64027 96.779 9.64027C95.9168 9.64027 95.2441 9.92058 94.761 10.4812C94.2778 11.0342 94.0363 11.7653 94.0363 12.6744V23.3335H89.4316V12.4471C89.4316 11.591 89.19 10.9092 88.7069 10.4016C88.2312 9.89406 87.6031 9.64027 86.8226 9.64027C86.2949 9.64027 85.8192 9.77664 85.3955 10.0494C84.9793 10.3145 84.6485 10.6895 84.4032 11.1744C84.1579 11.6516 84.0353 12.2122 84.0353 12.8562V23.3335H79.2857Z" fill="white"/>
<path d="M112.806 23.663C111.714 23.663 110.74 23.4698 109.885 23.0835C109.03 22.6895 108.354 22.11 107.856 21.3448C107.365 20.5721 107.12 19.61 107.12 18.4585C107.12 17.4888 107.295 16.6744 107.644 16.0153C107.993 15.3562 108.469 14.8259 109.071 14.4244C109.673 14.0228 110.357 13.7198 111.123 13.5153C111.896 13.3107 112.706 13.1668 113.553 13.0835C114.549 12.9774 115.352 12.8789 115.961 12.788C116.571 12.6895 117.013 12.5456 117.288 12.3562C117.563 12.1668 117.701 11.8865 117.701 11.5153V11.4471C117.701 10.7274 117.478 10.1706 117.032 9.77664C116.593 9.3827 115.969 9.18573 115.159 9.18573C114.304 9.18573 113.624 9.37891 113.118 9.76527C112.613 10.1441 112.278 10.6213 112.115 11.1971L107.722 10.8335C107.945 9.77285 108.384 8.85618 109.038 8.08346C109.692 7.30315 110.535 6.70467 111.569 6.288C112.609 5.86376 113.813 5.65164 115.181 5.65164C116.132 5.65164 117.043 5.76527 117.913 5.99255C118.79 6.21982 119.566 6.57209 120.243 7.04936C120.927 7.52664 121.466 8.14027 121.859 8.89027C122.253 9.6327 122.45 10.5228 122.45 11.5607V23.3335H117.946V20.913H117.812C117.537 21.4585 117.169 21.9395 116.708 22.3562C116.248 22.7653 115.694 23.0872 115.047 23.3221C114.401 23.5494 113.654 23.663 112.806 23.663ZM114.166 20.3221C114.865 20.3221 115.482 20.1819 116.017 19.9016C116.552 19.6138 116.972 19.2274 117.277 18.7425C117.582 18.2577 117.734 17.7085 117.734 17.0948V15.2425C117.586 15.341 117.381 15.4319 117.121 15.5153C116.868 15.591 116.582 15.663 116.263 15.7312C115.943 15.7918 115.623 15.8486 115.304 15.9016C114.984 15.9471 114.694 15.9888 114.434 16.0266C113.877 16.11 113.39 16.2425 112.973 16.4244C112.557 16.6062 112.234 16.8524 112.003 17.163C111.773 17.466 111.658 17.8448 111.658 18.2994C111.658 18.9585 111.892 19.4622 112.36 19.8107C112.836 20.1516 113.438 20.3221 114.166 20.3221Z" fill="white"/>
<path d="M123.914 4.11755V0.0607275H142.667V4.11755H135.676V23.3335H130.904V4.11755H123.914Z" fill="white"/>
<path d="M145.755 23.3335V0.0607275H150.583V9.663H160.383V0.0607275H165.2V23.3335H160.383V13.7198H150.583V23.3335H145.755Z" fill="white"/>
<path d="M30.8882 1.66679C30.8882 2.58726 30.1561 3.33346 29.253 3.33346C28.3498 3.33346 27.6177 2.58726 27.6177 1.66679C27.6177 0.746314 28.3498 0.000122158 29.253 0.000122158C30.1561 0.000122158 30.8882 0.746314 30.8882 1.66679Z" fill="white"/>
<path d="M38.0832 1.66679C38.0832 2.58726 37.3511 3.33346 36.448 3.33346C35.5449 3.33346 34.8128 2.58726 34.8128 1.66679C34.8128 0.746314 35.5449 0.000122158 36.448 0.000122158C37.3511 0.000122158 38.0832 0.746314 38.0832 1.66679Z" fill="white"/>
<path d="M55.0897 0.000122158H66.2093V2.00012H55.0897V0.000122158Z" fill="white"/>
<path d="M74.7126 23.3335V30.0001H72.7503V23.3335H74.7126Z" fill="white"/>
<path d="M2.76209 0.000122158L2.76209 6.66679H0.799805L0.799805 0.00012207L2.76209 0.000122158Z" fill="white"/>
</svg>
