<svg width="166" height="30" viewBox="0 0 166 30" fill="none" xmlns="http://www.w3.org/2000/svg">
<path d="M6.61977 29.8788V5.87879H11.3025V8.81061H11.5143C11.7225 8.34091 12.0235 7.86364 12.4174 7.37879C12.8188 6.88636 13.3391 6.47727 13.9783 6.15152C14.625 5.81818 15.4278 5.65152 16.3866 5.65152C17.6353 5.65152 18.7874 5.98485 19.8429 6.65152C20.8984 7.31061 21.742 8.30682 22.3738 9.64015C23.0056 10.9659 23.3215 12.6288 23.3215 14.6288C23.3215 16.5758 23.013 18.2197 22.3961 19.5606C21.7866 20.8939 20.9541 21.9053 19.8986 22.5947C18.8506 23.2765 17.6762 23.6174 16.3755 23.6174C15.4538 23.6174 14.6696 23.4621 14.0229 23.1515C13.3837 22.8409 12.8597 22.4508 12.4509 21.9811C12.0421 21.5038 11.7299 21.0227 11.5143 20.5379H11.3694V29.8788H6.61977ZM11.269 14.6061C11.269 15.6439 11.4103 16.5492 11.6927 17.322C11.9752 18.0947 12.384 18.697 12.9192 19.1288C13.4543 19.553 14.1047 19.7652 14.8703 19.7652C15.6433 19.7652 16.2974 19.5492 16.8326 19.1174C17.3677 18.678 17.7728 18.072 18.0479 17.2992C18.3303 16.5189 18.4715 15.6212 18.4715 14.6061C18.4715 13.5985 18.334 12.7121 18.059 11.947C17.784 11.1818 17.3789 10.5833 16.8437 10.1515C16.3086 9.7197 15.6507 9.50379 14.8703 9.50379C14.0973 9.50379 13.4432 9.71212 12.908 10.1288C12.3803 10.5455 11.9752 11.1364 11.6927 11.9015C11.4103 12.6667 11.269 13.5682 11.269 14.6061Z" fill="#0074FF"/>
<path d="M31.3713 23.6629C30.2787 23.6629 29.305 23.4697 28.4502 23.0833C27.5954 22.6894 26.919 22.1098 26.421 21.3447C25.9304 20.572 25.6852 19.6098 25.6852 18.4583C25.6852 17.4886 25.8598 16.6742 26.2092 16.0152C26.5585 15.3561 27.0342 14.8258 27.6363 14.4242C28.2384 14.0227 28.9222 13.7197 29.6878 13.5152C30.4608 13.3106 31.271 13.1667 32.1183 13.0833C33.1143 12.9773 33.9171 12.8788 34.5266 12.7879C35.1361 12.6894 35.5784 12.5455 35.8534 12.3561C36.1284 12.1667 36.2659 11.8864 36.2659 11.5152V11.447C36.2659 10.7273 36.0429 10.1705 35.5969 9.77651C35.1584 9.38258 34.534 9.18561 33.7238 9.18561C32.8691 9.18561 32.189 9.37879 31.6835 9.76515C31.1781 10.1439 30.8436 10.6212 30.6801 11.197L26.2872 10.8333C26.5102 9.77273 26.9488 8.85606 27.6029 8.08333C28.2569 7.30303 29.1006 6.70454 30.1338 6.28788C31.1744 5.86364 32.3785 5.65152 33.7461 5.65152C34.6976 5.65152 35.6081 5.76515 36.4777 5.99242C37.3548 6.2197 38.1316 6.57197 38.808 7.04924C39.4918 7.52651 40.0307 8.14015 40.4246 8.89015C40.8185 9.63258 41.0155 10.5227 41.0155 11.5606V23.3333H36.5112V20.9129H36.3774C36.1024 21.4583 35.7344 21.9394 35.2736 22.3561C34.8128 22.7652 34.259 23.0871 33.6124 23.322C32.9657 23.5492 32.2187 23.6629 31.3713 23.6629ZM32.7316 20.322C33.4302 20.322 34.0472 20.1818 34.5823 19.9015C35.1175 19.6136 35.5375 19.2273 35.8422 18.7424C36.147 18.2576 36.2993 17.7083 36.2993 17.0947V15.2424C36.1507 15.3409 35.9463 15.4318 35.6861 15.5152C35.4334 15.5909 35.1472 15.6629 34.8276 15.7311C34.508 15.7917 34.1884 15.8485 33.8688 15.9015C33.5492 15.947 33.2593 15.9886 32.9991 16.0265C32.4417 16.1098 31.9548 16.2424 31.5386 16.4242C31.1223 16.6061 30.799 16.8523 30.5686 17.1629C30.3382 17.4659 30.2229 17.8447 30.2229 18.2992C30.2229 18.9583 30.4571 19.4621 30.9254 19.8106C31.4011 20.1515 32.0031 20.322 32.7316 20.322Z" fill="#0074FF"/>
<path d="M49.45 0.0606055V23.3333H44.7004V0.0606055H49.45Z" fill="#0074FF"/>
<path d="M61.0593 23.6742C59.2977 23.6742 57.7814 23.3106 56.5103 22.5833C55.2467 21.8485 54.273 20.8106 53.5892 19.4697C52.9054 18.1212 52.5635 16.5265 52.5635 14.6856C52.5635 12.8902 52.9054 11.3144 53.5892 9.95833C54.273 8.60227 55.2356 7.54545 56.4769 6.78788C57.7256 6.0303 59.1899 5.65152 60.8697 5.65152C61.9995 5.65152 63.0513 5.83712 64.025 6.20833C65.0061 6.57197 65.8609 7.12121 66.5894 7.85606C67.3252 8.59091 67.8975 9.51515 68.3064 10.6288C68.7152 11.7348 68.9196 13.0303 68.9196 14.5152V15.8447H54.4589V12.8447H64.4487C64.4487 12.1477 64.3 11.5303 64.0027 10.9924C63.7054 10.4545 63.2929 10.0341 62.7651 9.73106C62.2448 9.42045 61.639 9.26515 60.9478 9.26515C60.2268 9.26515 59.5876 9.43561 59.0301 9.77651C58.4801 10.1098 58.0489 10.5606 57.7368 11.1288C57.4246 11.6894 57.2648 12.3144 57.2573 13.0038V15.8561C57.2573 16.7197 57.4134 17.4659 57.7256 18.0947C58.0452 18.7235 58.4949 19.2083 59.0747 19.5492C59.6545 19.8902 60.342 20.0606 61.1373 20.0606C61.6651 20.0606 62.1482 19.9848 62.5867 19.8333C63.0253 19.6818 63.4006 19.4545 63.7128 19.1515C64.025 18.8485 64.2629 18.4773 64.4264 18.0379L68.8192 18.3333C68.5962 19.4091 68.1391 20.3485 67.4479 21.1515C66.764 21.947 65.8795 22.5682 64.7943 23.0152C63.7165 23.4545 62.4715 23.6742 61.0593 23.6742Z" fill="#0074FF"/>
<path d="M79.2857 23.3333V5.87879H83.8123V8.95833H84.013C84.3698 7.93561 84.9644 7.12879 85.7969 6.53788C86.6294 5.94697 87.6254 5.65152 88.7849 5.65152C89.9593 5.65152 90.959 5.95076 91.7841 6.54924C92.6092 7.14015 93.1592 7.94318 93.4342 8.95833H93.6126C93.9619 7.95833 94.5937 7.15909 95.508 6.56061C96.4297 5.95455 97.5186 5.65152 98.7747 5.65152C100.373 5.65152 101.67 6.17045 102.666 7.20833C103.669 8.23864 104.171 9.70076 104.171 11.5947V23.3333H99.4326V12.5492C99.4326 11.5795 99.1798 10.8523 98.6744 10.3674C98.169 9.88258 97.5372 9.64015 96.779 9.64015C95.9168 9.64015 95.2441 9.92045 94.761 10.4811C94.2778 11.0341 94.0363 11.7652 94.0363 12.6742V23.3333H89.4316V12.447C89.4316 11.5909 89.19 10.9091 88.7069 10.4015C88.2312 9.89394 87.6031 9.64015 86.8226 9.64015C86.2949 9.64015 85.8192 9.77652 85.3955 10.0492C84.9793 10.3144 84.6485 10.6894 84.4032 11.1742C84.1579 11.6515 84.0353 12.2121 84.0353 12.8561V23.3333H79.2857Z" fill="black"/>
<path d="M112.806 23.6629C111.714 23.6629 110.74 23.4697 109.885 23.0833C109.03 22.6894 108.354 22.1098 107.856 21.3447C107.365 20.572 107.12 19.6098 107.12 18.4583C107.12 17.4886 107.295 16.6742 107.644 16.0152C107.993 15.3561 108.469 14.8258 109.071 14.4242C109.673 14.0227 110.357 13.7197 111.123 13.5152C111.896 13.3106 112.706 13.1667 113.553 13.0833C114.549 12.9773 115.352 12.8788 115.961 12.7879C116.571 12.6894 117.013 12.5455 117.288 12.3561C117.563 12.1667 117.701 11.8864 117.701 11.5152V11.447C117.701 10.7273 117.478 10.1705 117.032 9.77651C116.593 9.38258 115.969 9.18561 115.159 9.18561C114.304 9.18561 113.624 9.37879 113.118 9.76515C112.613 10.1439 112.278 10.6212 112.115 11.197L107.722 10.8333C107.945 9.77273 108.384 8.85606 109.038 8.08333C109.692 7.30303 110.535 6.70454 111.569 6.28788C112.609 5.86364 113.813 5.65152 115.181 5.65152C116.132 5.65152 117.043 5.76515 117.913 5.99242C118.79 6.2197 119.566 6.57197 120.243 7.04924C120.927 7.52651 121.466 8.14015 121.859 8.89015C122.253 9.63258 122.45 10.5227 122.45 11.5606V23.3333H117.946V20.9129H117.812C117.537 21.4583 117.169 21.9394 116.708 22.3561C116.248 22.7652 115.694 23.0871 115.047 23.322C114.401 23.5492 113.654 23.6629 112.806 23.6629ZM114.166 20.322C114.865 20.322 115.482 20.1818 116.017 19.9015C116.552 19.6136 116.972 19.2273 117.277 18.7424C117.582 18.2576 117.734 17.7083 117.734 17.0947V15.2424C117.586 15.3409 117.381 15.4318 117.121 15.5152C116.868 15.5909 116.582 15.6629 116.263 15.7311C115.943 15.7917 115.623 15.8485 115.304 15.9015C114.984 15.947 114.694 15.9886 114.434 16.0265C113.877 16.1098 113.39 16.2424 112.973 16.4242C112.557 16.6061 112.234 16.8523 112.003 17.1629C111.773 17.4659 111.658 17.8447 111.658 18.2992C111.658 18.9583 111.892 19.4621 112.36 19.8106C112.836 20.1515 113.438 20.322 114.166 20.322Z" fill="black"/>
<path d="M123.914 4.11742V0.0606055H142.667V4.11742H135.676V23.3333H130.904V4.11742H123.914Z" fill="black"/>
<path d="M145.755 23.3333V0.0606055H150.583V9.66288H160.383V0.0606055H165.2V23.3333H160.383V13.7197H150.583V23.3333H145.755Z" fill="black"/>
<path d="M30.8882 1.66667C30.8882 2.58714 30.1561 3.33333 29.253 3.33333C28.3498 3.33333 27.6177 2.58714 27.6177 1.66667C27.6177 0.746192 28.3498 8.74228e-08 29.253 8.74228e-08C30.1561 8.74228e-08 30.8882 0.746192 30.8882 1.66667Z" fill="black"/>
<path d="M38.0832 1.66667C38.0832 2.58714 37.3511 3.33333 36.448 3.33333C35.5449 3.33333 34.8128 2.58714 34.8128 1.66667C34.8128 0.746192 35.5449 8.74228e-08 36.448 8.74228e-08C37.3511 8.74228e-08 38.0832 0.746192 38.0832 1.66667Z" fill="black"/>
<path d="M55.0897 8.74228e-08H66.2093V2H55.0897V8.74228e-08Z" fill="black"/>
<path d="M74.7126 23.3333V30H72.7503V23.3333H74.7126Z" fill="black"/>
<path d="M2.76209 8.74228e-08L2.76209 6.66667H0.799805L0.799805 0L2.76209 8.74228e-08Z" fill="black"/>
</svg>
