<svg width="38" height="45" viewBox="0 0 38 45" fill="none" xmlns="http://www.w3.org/2000/svg">
<path fill-rule="evenodd" clip-rule="evenodd" d="M37.8558 4.7293C37.8695 4.65806 37.8765 4.58639 37.8765 4.51433C37.8765 2.02114 29.5353 0 19.2459 0C8.95655 0 0.615356 2.02114 0.615356 4.51433C0.615356 4.58639 0.622325 4.65806 0.636108 4.7293H0.615356V40.0557V40.1274H0.617273C0.761673 42.825 9.0467 45 19.2459 45C29.4452 45 37.7302 42.825 37.8746 40.1274H37.8765V40.0557V4.7293H37.8558Z" fill="#E0234E"/>
<path d="M8.21947 33.0416C7.6422 33.0416 7.08945 32.998 6.5612 32.9109C6.0384 32.8292 5.58367 32.7312 5.19701 32.6168C4.81036 32.497 4.53806 32.3881 4.38013 32.2901L4.7559 29.9211C4.9574 30.0355 5.22969 30.1526 5.57278 30.2724C5.91587 30.3922 6.29435 30.4956 6.70824 30.5828C7.12757 30.6645 7.54962 30.7053 7.9744 30.7053C8.54622 30.7053 8.9601 30.6236 9.21606 30.4603C9.47746 30.2969 9.60816 30.0355 9.60816 29.676C9.60816 29.4146 9.5292 29.1941 9.37127 29.0144C9.21334 28.8292 8.95193 28.6413 8.58706 28.4507C8.22763 28.2601 7.74568 28.0205 7.14119 27.7319C6.62927 27.4868 6.15821 27.1982 5.72798 26.866C5.29776 26.5283 4.95195 26.1253 4.69055 25.657C4.42915 25.1832 4.29845 24.6223 4.29845 23.9742C4.29845 23.4188 4.40192 22.9341 4.60886 22.5202C4.82125 22.1009 5.11805 21.7523 5.49926 21.4746C5.88591 21.1968 6.34337 20.9899 6.87162 20.8538C7.39986 20.7122 7.98529 20.6414 8.62791 20.6414C9.54281 20.6414 10.2889 20.7258 10.8662 20.8946C11.4434 21.0634 11.841 21.2132 12.0588 21.3439L11.585 23.6148C11.3399 23.4242 10.9615 23.2499 10.4495 23.092C9.94308 22.9286 9.423 22.8469 8.88931 22.8469C8.5081 22.8469 8.19496 22.8905 7.9499 22.9776C7.70483 23.0593 7.5224 23.1764 7.40259 23.3289C7.28278 23.4814 7.22287 23.6584 7.22287 23.8599C7.22287 24.1049 7.29367 24.3228 7.43526 24.5134C7.5823 24.6985 7.8083 24.8837 8.11327 25.0689C8.42369 25.2486 8.82396 25.4501 9.31408 25.6733C9.83689 25.9075 10.3025 26.1471 10.7109 26.3922C11.1248 26.6373 11.4761 26.9041 11.7647 27.1927C12.0534 27.4814 12.2712 27.8108 12.4182 28.1812C12.5707 28.546 12.647 28.9681 12.647 29.4473C12.647 30.1716 12.4754 30.8033 12.1323 31.3425C11.7947 31.8816 11.2964 32.301 10.6374 32.6005C9.97848 32.8946 9.17249 33.0416 8.21947 33.0416ZM22.999 35.7373C22.1004 35.7373 21.3761 35.6447 20.8261 35.4596C20.276 35.2744 19.8431 34.9694 19.5272 34.5446C19.2114 34.1253 18.9527 33.5589 18.7512 32.8455L20.2053 32.4698H21.0385C21.131 32.7911 21.2617 33.028 21.4306 33.1805C21.5994 33.3384 21.8363 33.4419 22.1413 33.4909C22.4462 33.5399 22.8465 33.5644 23.3421 33.5644C23.5708 33.5644 23.7968 33.5399 24.0201 33.4909C24.2434 33.4419 24.4367 33.3901 24.6001 33.3357V35.3779C24.453 35.4487 24.2461 35.5249 23.9792 35.6066C23.7124 35.6937 23.3856 35.7373 22.999 35.7373ZM19.5681 33.0416C18.37 33.0634 17.3462 32.821 16.4966 32.3146C15.6525 31.8027 15.0099 31.0756 14.5688 30.1335C14.1331 29.1859 13.9262 28.0695 13.948 26.7843C13.9752 25.3466 14.2393 24.1839 14.7403 23.2962C15.2468 22.4031 15.9357 21.7469 16.807 21.3275C17.6784 20.9028 18.675 20.674 19.7968 20.6414C20.9459 20.6087 21.9316 20.8429 22.7539 21.3439C23.5762 21.8395 24.2025 22.5556 24.6327 23.4923C25.0684 24.429 25.2753 25.5372 25.2536 26.817C25.2263 28.2547 24.9704 29.4283 24.4857 30.3377C24.001 31.2472 23.3366 31.9197 22.4925 32.3554C21.6484 32.7911 20.6736 33.0198 19.5681 33.0416ZM19.6171 30.8524C20.4013 30.8524 21.0194 30.5365 21.4714 29.9048C21.9234 29.2676 22.1494 28.2111 22.1494 26.7353C22.1494 25.9729 22.0623 25.303 21.888 24.7258C21.7138 24.1485 21.4496 23.6992 21.0956 23.3779C20.7417 23.0566 20.2924 22.896 19.7478 22.896C19.2522 22.896 18.8002 23.0185 18.3918 23.2635C17.9833 23.5086 17.6566 23.9198 17.4115 24.497C17.1719 25.0743 17.0521 25.8639 17.0521 26.866C17.0521 27.6393 17.1474 28.3255 17.338 28.9245C17.5286 29.5236 17.8118 29.9946 18.1876 30.3377C18.5688 30.6808 19.0453 30.8524 19.6171 30.8524ZM27.3644 32.9109V20.7721H30.3705V30.4603H34.4713V32.9109H27.3644Z" fill="white"/>
</svg>
