<svg width="45" height="44" viewBox="0 0 45 44" fill="none" xmlns="http://www.w3.org/2000/svg">
<path d="M0.615356 4.20382C0.615356 1.88212 2.49747 0 4.81918 0H40.4115C42.7332 0 44.6154 1.88212 44.6154 4.20382V39.7962C44.6154 42.1179 42.7332 44 40.4115 44H4.81918C2.49747 44 0.615356 42.1179 0.615356 39.7962V4.20382Z" fill="#F7DF1E"/>
<path d="M12.1846 36.7695L15.5517 34.7318C16.2013 35.8835 16.7922 36.858 18.2097 36.858C19.5684 36.858 20.4252 36.3266 20.4252 34.2593V20.2002H24.56V34.3177C24.56 38.6003 22.0496 40.5497 18.3869 40.5497C15.0792 40.5497 13.1592 38.8366 12.1844 36.7692M26.8059 36.3264L30.1725 34.3772C31.0589 35.8245 32.2108 36.8878 34.2486 36.8878C35.962 36.8878 37.0544 36.0311 37.0544 34.8497C37.0544 33.432 35.9321 32.9298 34.0418 32.1031L33.0083 31.6597C30.0251 30.39 28.0463 28.795 28.0463 25.428C28.0463 22.3267 30.409 19.9637 34.1011 19.9637C36.7297 19.9637 38.62 20.8795 39.9785 23.2718L36.759 25.3395C36.05 24.0695 35.2824 23.5674 34.1009 23.5674C32.8899 23.5674 32.1219 24.3354 32.1219 25.3395C32.1219 26.5799 32.8899 27.0823 34.6619 27.8502L35.6956 28.2932C39.2104 29.7996 41.1892 31.3353 41.1892 34.7907C41.1892 38.5125 38.2653 40.5502 34.3371 40.5502C30.4976 40.5502 28.0165 38.7191 26.8057 36.3266" fill="black"/>
</svg>
