<svg width="39" height="44" viewBox="0 0 39 44" fill="none" xmlns="http://www.w3.org/2000/svg">
<path d="M19.4344 44C18.8317 44 18.269 43.8383 17.7467 43.5553L12.4025 40.3618C11.5989 39.9173 12.0007 39.7556 12.2418 39.6748C13.3268 39.3109 13.5276 39.2301 14.6526 38.5833C14.7732 38.5025 14.9341 38.5428 15.0546 38.6236L19.1532 41.0896C19.3139 41.1704 19.5147 41.1704 19.6352 41.0896L35.6683 31.7519C35.8279 31.671 35.9099 31.5094 35.9099 31.3074V12.6725C35.9099 12.4703 35.8279 12.3086 35.6683 12.2278L19.6352 2.93059C19.4746 2.84975 19.2736 2.84975 19.1532 2.93059L3.12053 12.2278C2.95966 12.3086 2.87943 12.5108 2.87943 12.6725V31.3074C2.87943 31.469 2.95966 31.671 3.12053 31.7519L7.50035 34.2984C9.87108 35.5112 11.3578 34.0964 11.3578 32.6816V14.2893C11.3578 14.0468 11.5586 13.8042 11.84 13.8042H13.8892C14.1303 13.8042 14.3714 14.0064 14.3714 14.2893V32.6816C14.3714 35.8749 12.6436 37.7344 9.62998 37.7344C8.70588 37.7344 7.98256 37.7344 5.93316 36.7238L1.71401 34.2984C0.669362 33.6922 0.0264893 32.5603 0.0264893 31.3477V12.7128C0.0264893 11.5002 0.669362 10.3685 1.71401 9.76205L17.7467 0.424565C18.7512 -0.141522 20.1174 -0.141522 21.122 0.424565L37.1553 9.76205C38.1991 10.3685 38.8418 11.5002 38.8418 12.7128V31.3477C38.8418 32.5603 38.1991 33.6922 37.1553 34.2984L21.122 43.6361C20.6398 43.8383 20.0372 44 19.4344 44Z" fill="#5FA04E"/>
<path d="M24.4392 31.2484C17.4404 31.2484 16.001 27.9914 16.001 25.223C16.001 24.9787 16.2009 24.7344 16.4807 24.7344H18.5601C18.8 24.7344 19 24.8973 19 25.1415C19.3198 27.2993 20.2396 28.3577 24.4789 28.3577C27.8376 28.3577 29.2776 27.5843 29.2776 25.7523C29.2776 24.6936 28.8763 23.92 23.6385 23.3909C19.2799 22.943 16.5608 21.966 16.5608 18.4239C16.5608 15.1263 19.2799 13.172 23.8385 13.172C28.9578 13.172 31.4763 14.9634 31.7961 18.8718C31.7961 18.9938 31.7564 19.1161 31.677 19.2381C31.5955 19.3195 31.4763 19.4011 31.3551 19.4011H29.2358C29.0372 19.4011 28.8366 19.2381 28.7969 19.0346C28.3162 16.7955 27.0768 16.0625 23.7986 16.0625C20.1197 16.0625 19.6797 17.3654 19.6797 18.3425C19.6797 19.5232 20.1995 19.8896 25.1581 20.541C30.076 21.1924 32.3959 22.1288 32.3959 25.6301C32.3959 29.2127 29.4761 31.2484 24.4392 31.2484Z" fill="#5FA04E"/>
</svg>
