<svg width="53" height="45" viewBox="0 0 53 45" fill="none" xmlns="http://www.w3.org/2000/svg">
<path d="M31.2134 22.4583C31.2134 19.9757 29.1377 17.9628 26.5769 17.9628C24.0164 17.9628 21.9403 19.9757 21.9403 22.4583C21.9403 24.9412 24.0164 26.9539 26.5769 26.9539C29.1377 26.9539 31.2134 24.9412 31.2134 22.4583Z" fill="#53C1DE"/>
<path fill-rule="evenodd" clip-rule="evenodd" d="M41.6353 14.1122C42.6144 10.2544 43.8451 3.10064 39.5064 0.675275C35.188 -1.73951 29.5684 2.88767 26.601 5.66512C23.6422 2.91534 17.8647 -1.69205 13.5297 0.741009C9.21297 3.1639 10.5442 10.1991 11.545 14.081C7.5182 15.1899 0.615356 17.5784 0.615356 22.4583C0.615356 27.3243 7.51102 29.9229 11.514 31.0308C10.5094 34.9342 9.2449 41.8689 13.5672 44.2864C17.9184 46.719 23.6779 42.2212 26.6728 39.4134C29.6592 42.2072 35.2249 46.7344 39.5442 44.3101C43.877 41.8782 42.7485 34.8203 41.7476 30.9159C45.628 29.8056 52.5384 27.2636 52.5384 22.4583C52.5384 17.6253 45.5986 15.2174 41.6353 14.1122ZM41.1434 28.8467C40.4862 26.8297 39.5992 24.6847 38.5142 22.469C39.5499 20.3056 40.4025 18.1883 41.0413 16.1842C43.9467 17.001 50.3205 18.8676 50.3205 22.4583C50.3205 26.0827 44.2041 27.967 41.1434 28.8467ZM38.4327 42.4488C35.21 44.2575 30.4228 39.9282 28.2173 37.8708C29.6805 36.3192 31.1427 34.5153 32.5697 32.5123C35.08 32.2965 37.4513 31.9434 39.602 31.4614C40.3064 34.2232 41.6696 40.6321 38.4327 42.4488ZM14.6755 42.4231C11.4524 40.6212 12.9256 34.433 13.6646 31.5576C15.7913 32.0139 18.1456 32.342 20.6618 32.5398C22.0982 34.4998 23.6027 36.3013 25.1189 37.8791C23.2457 39.636 17.9135 44.2333 14.6755 42.4231ZM2.83332 22.4583C2.83332 18.8204 9.16894 16.9672 12.1406 16.1526C12.7905 18.2016 13.6428 20.3442 14.6713 22.5107C13.6294 24.7095 12.765 26.8859 12.1091 28.9592C9.27559 28.1728 2.83332 26.0984 2.83332 22.4583ZM14.641 2.60228C17.8772 0.786044 22.8985 5.20932 25.0467 7.20022C23.5384 8.77074 22.0476 10.5587 20.6236 12.5074C18.1816 12.7269 15.844 13.0792 13.6949 13.5514C12.8887 10.4205 11.4083 4.41656 14.641 2.60228ZM34.1565 14.845C35.8131 15.0477 37.4004 15.3173 38.8908 15.6472C38.4434 17.0377 37.8857 18.4917 37.2289 19.9822C36.2768 18.2307 35.2548 16.5143 34.1565 14.845ZM26.6016 8.73709C27.6247 9.81168 28.6493 11.0117 29.6573 12.3136C27.6128 12.2197 25.5649 12.2194 23.5204 12.3122C24.5292 11.0224 25.5627 9.82416 26.6016 8.73709ZM15.9439 19.9807C15.298 18.4953 14.7453 17.0349 14.294 15.6245C15.7755 15.3031 17.3554 15.0404 19.0013 14.841C17.8999 16.5067 16.8796 18.2224 15.9439 19.9807ZM19.0486 30.2291C17.3483 30.0451 15.7445 29.7957 14.2634 29.4831C14.7219 28.048 15.2867 26.5561 15.9464 25.0387C16.895 26.8153 17.9308 28.5477 19.0486 30.2291ZM26.6631 36.3314C25.6118 35.2315 24.5631 34.015 23.539 32.7065C25.5952 32.7847 27.6553 32.7849 29.7113 32.696C28.7002 34.0283 27.6792 35.2466 26.6631 36.3314ZM37.25 24.9615C37.9441 26.4953 38.5291 27.9791 38.9938 29.39C37.4882 29.7232 35.8628 29.9915 34.1502 30.1907C35.2567 28.4897 36.295 26.7466 37.25 24.9615ZM31.3318 30.4513C28.1867 30.6692 25.022 30.6668 21.8758 30.4692C20.0881 27.9372 18.4966 25.2744 17.1229 22.51C18.49 19.7514 20.0699 17.0938 21.8491 14.5658C24.9976 14.3351 28.1654 14.3344 31.3138 14.5672C33.0778 17.095 34.6553 19.7457 36.0541 22.4794C34.6719 25.2367 33.0837 27.8997 31.3318 30.4513ZM38.3986 2.53834C41.6356 4.34862 40.1948 10.7779 39.4876 13.5737C37.3335 13.0917 34.9941 12.7331 32.5451 12.5102C31.1183 10.5405 29.64 8.74935 28.156 7.19912C30.3318 5.16532 35.1928 0.745769 38.3986 2.53834Z" fill="#53C1DE"/>
</svg>
